# xmcd
#
# Track frame offsets:
#	150
#	13390
#	27640
#	37855
#	49122
#	59677
#	70060
#	79629
#	91925
#	104437
#	115795
#	124842
#	136267
#	146412
#
# Disc length: 2154 seconds
#
# Revision: 0
# Processed by: cddbd v1.5.1PL2 Copyright (c) Steve Scherf et al.
# Submitted via: dBpowerAMP V4.0
#
DISCID=c008680e
DTITLE=Dave Maclean - Contry Beatles
DYEAR=1900
DGENRE=
TTITLE0=A Hard Day´s Night
TTITLE1=Tcket To Ride
TTITLE2=Help
TTITLE3=Here Comes The Sun
TTITLE4=Here, There And Everywhere
TTITLE5=Eight Days a Week
TTITLE6=I Should Have Know Better
TTITLE7=I Wanna Hold Your Hand
TTITLE8=Something
TTITLE9=Love Me Do
TTITLE10=Please, Please Me
TTITLE11=Black Bird
TTITLE12=Yesterday
TTITLE13=Hey Jude
EXTD=
EXTT0=
EXTT1=
EXTT2=
EXTT3=
EXTT4=
EXTT5=
EXTT6=
EXTT7=
EXTT8=
EXTT9=
EXTT10=
EXTT11=
EXTT12=
EXTT13=
PLAYORDER=
